<mxfile host="Electron" agent="Mozilla/5.0 (Windows NT 10.0; Win64; x64) AppleWebKit/537.36 (KHTML, like Gecko) draw.io/28.1.2 Chrome/138.0.7204.243 Electron/37.4.0 Safari/537.36" version="28.1.2">
  <diagram name="Страница — 1" id="FVOtbzwShO8xb_7S_Tpv">
    <mxGraphModel dx="2564" dy="2269" grid="1" gridSize="10" guides="1" tooltips="1" connect="1" arrows="1" fold="1" page="1" pageScale="1" pageWidth="827" pageHeight="1169" math="0" shadow="0">
      <root>
        <mxCell id="0" />
        <mxCell id="1" parent="0" />
        <mxCell id="W-LGx0gPhZcoC32mYa0W-1" value="&lt;font style=&quot;font-size: 36px;&quot;&gt;Динамическая генерация миров&lt;/font&gt;" style="rounded=0;whiteSpace=wrap;html=1;" parent="1" vertex="1">
          <mxGeometry x="-120" y="290" width="790" height="330" as="geometry" />
        </mxCell>
        <mxCell id="W-LGx0gPhZcoC32mYa0W-5" value="&lt;font style=&quot;font-size: 18px;&quot;&gt;Ограничения производительности&lt;/font&gt;" style="text;html=1;align=center;verticalAlign=middle;whiteSpace=wrap;rounded=0;rotation=-90;" parent="1" vertex="1">
          <mxGeometry x="174.25" y="52.75" width="313.5" height="30" as="geometry" />
        </mxCell>
        <mxCell id="OWpaZHNzUhLOPfv6ZXrJ-3" value="&lt;font style=&quot;font-size: 18px;&quot;&gt;Настройки сложности&lt;/font&gt;" style="text;html=1;align=center;verticalAlign=middle;whiteSpace=wrap;rounded=0;rotation=-90;" parent="1" vertex="1">
          <mxGeometry x="293.5" y="117.5" width="279" height="30" as="geometry" />
        </mxCell>
        <mxCell id="OWpaZHNzUhLOPfv6ZXrJ-11" value="" style="endArrow=classic;html=1;rounded=0;entryX=0.192;entryY=-0.001;entryDx=0;entryDy=0;entryPerimeter=0;" parent="1" edge="1">
          <mxGeometry width="50" height="50" relative="1" as="geometry">
            <mxPoint x="113" y="-60" as="sourcePoint" />
            <mxPoint x="112.68000000000006" y="289.66999999999996" as="targetPoint" />
          </mxGeometry>
        </mxCell>
        <mxCell id="OWpaZHNzUhLOPfv6ZXrJ-18" value="&lt;font style=&quot;font-size: 18px;&quot;&gt;Шаблоны диалогов&lt;/font&gt;" style="text;html=1;align=center;verticalAlign=middle;whiteSpace=wrap;rounded=0;rotation=-90;" parent="1" vertex="1">
          <mxGeometry x="-20" y="87.5" width="180" height="50" as="geometry" />
        </mxCell>
        <mxCell id="OWpaZHNzUhLOPfv6ZXrJ-19" value="&lt;font style=&quot;font-size: 18px;&quot;&gt;Игровые сценарии&lt;/font&gt;" style="text;html=1;align=center;verticalAlign=middle;whiteSpace=wrap;rounded=0;" parent="1" vertex="1">
          <mxGeometry x="-389.5" y="395" width="180" height="50" as="geometry" />
        </mxCell>
        <mxCell id="OWpaZHNzUhLOPfv6ZXrJ-20" value="&lt;font style=&quot;font-size: 18px;&quot;&gt;Алгоритмы процедурной генерации&lt;/font&gt;" style="text;html=1;align=center;verticalAlign=middle;whiteSpace=wrap;rounded=0;rotation=-90;" parent="1" vertex="1">
          <mxGeometry x="-7" y="87.5" width="305" height="30" as="geometry" />
        </mxCell>
        <mxCell id="OWpaZHNzUhLOPfv6ZXrJ-21" value="&lt;font style=&quot;font-size: 18px;&quot;&gt;Правила игровой логики&lt;/font&gt;" style="text;html=1;align=center;verticalAlign=middle;whiteSpace=wrap;rounded=0;rotation=-90;" parent="1" vertex="1">
          <mxGeometry x="125.25" y="85.75" width="235.5" height="30" as="geometry" />
        </mxCell>
        <mxCell id="OWpaZHNzUhLOPfv6ZXrJ-22" value="&lt;font style=&quot;font-size: 18px;&quot;&gt;Seed-значения для генератора&lt;/font&gt;" style="text;whiteSpace=wrap;html=1;align=center;rotation=-90;" parent="1" vertex="1">
          <mxGeometry x="388" y="93" width="290" height="50" as="geometry" />
        </mxCell>
        <mxCell id="OWpaZHNzUhLOPfv6ZXrJ-26" value="&lt;font style=&quot;font-size: 18px;&quot;&gt;Характеристика игрока&lt;/font&gt;" style="text;html=1;align=center;verticalAlign=middle;whiteSpace=wrap;rounded=0;" parent="1" vertex="1">
          <mxGeometry x="-413" y="433" width="241" height="50" as="geometry" />
        </mxCell>
        <mxCell id="OWpaZHNzUhLOPfv6ZXrJ-27" value="&lt;font style=&quot;font-size: 18px;&quot;&gt;Начальные параметры мира&lt;/font&gt;" style="text;html=1;align=center;verticalAlign=middle;whiteSpace=wrap;rounded=0;" parent="1" vertex="1">
          <mxGeometry x="-461" y="475" width="301" height="50" as="geometry" />
        </mxCell>
        <mxCell id="OWpaZHNzUhLOPfv6ZXrJ-28" value="&lt;span style=&quot;font-size: 18px;&quot;&gt;Логи игрока&lt;/span&gt;" style="text;html=1;align=center;verticalAlign=middle;whiteSpace=wrap;rounded=0;" parent="1" vertex="1">
          <mxGeometry x="-400" y="519" width="180" height="50" as="geometry" />
        </mxCell>
        <mxCell id="OWpaZHNzUhLOPfv6ZXrJ-29" value="&lt;span style=&quot;font-size: 18px;&quot;&gt;Контекстные данные окружения&lt;/span&gt;" style="text;html=1;align=center;verticalAlign=middle;whiteSpace=wrap;rounded=0;" parent="1" vertex="1">
          <mxGeometry x="-470" y="561" width="310" height="50" as="geometry" />
        </mxCell>
        <mxCell id="OWpaZHNzUhLOPfv6ZXrJ-36" value="" style="endArrow=classic;html=1;rounded=0;" parent="1" edge="1">
          <mxGeometry width="50" height="50" relative="1" as="geometry">
            <mxPoint x="670" y="329.33" as="sourcePoint" />
            <mxPoint x="1000" y="330" as="targetPoint" />
          </mxGeometry>
        </mxCell>
        <mxCell id="OWpaZHNzUhLOPfv6ZXrJ-37" value="" style="endArrow=classic;html=1;rounded=0;" parent="1" edge="1">
          <mxGeometry width="50" height="50" relative="1" as="geometry">
            <mxPoint x="670" y="381" as="sourcePoint" />
            <mxPoint x="1000" y="380" as="targetPoint" />
          </mxGeometry>
        </mxCell>
        <mxCell id="OWpaZHNzUhLOPfv6ZXrJ-38" value="" style="endArrow=classic;html=1;rounded=0;" parent="1" edge="1">
          <mxGeometry width="50" height="50" relative="1" as="geometry">
            <mxPoint x="670" y="445" as="sourcePoint" />
            <mxPoint x="1000" y="445" as="targetPoint" />
          </mxGeometry>
        </mxCell>
        <mxCell id="OWpaZHNzUhLOPfv6ZXrJ-39" value="" style="endArrow=classic;html=1;rounded=0;" parent="1" edge="1">
          <mxGeometry width="50" height="50" relative="1" as="geometry">
            <mxPoint x="670" y="520" as="sourcePoint" />
            <mxPoint x="1000" y="520" as="targetPoint" />
          </mxGeometry>
        </mxCell>
        <mxCell id="OWpaZHNzUhLOPfv6ZXrJ-40" value="" style="endArrow=classic;html=1;rounded=0;" parent="1" edge="1">
          <mxGeometry width="50" height="50" relative="1" as="geometry">
            <mxPoint x="670" y="574" as="sourcePoint" />
            <mxPoint x="1010" y="570" as="targetPoint" />
          </mxGeometry>
        </mxCell>
        <mxCell id="OWpaZHNzUhLOPfv6ZXrJ-41" value="" style="endArrow=classic;html=1;rounded=0;" parent="1" edge="1">
          <mxGeometry width="50" height="50" relative="1" as="geometry">
            <mxPoint x="670" y="615.33" as="sourcePoint" />
            <mxPoint x="1010" y="615" as="targetPoint" />
          </mxGeometry>
        </mxCell>
        <mxCell id="OWpaZHNzUhLOPfv6ZXrJ-42" value="&lt;span style=&quot;font-size: 18px;&quot;&gt;Обученная модель поведения NPC&lt;/span&gt;" style="text;html=1;align=center;verticalAlign=middle;whiteSpace=wrap;rounded=0;" parent="1" vertex="1">
          <mxGeometry x="690" y="270" width="310" height="50" as="geometry" />
        </mxCell>
        <mxCell id="OWpaZHNzUhLOPfv6ZXrJ-43" value="&lt;span style=&quot;font-size: 18px;&quot;&gt;Текстуры для окружения&lt;/span&gt;" style="text;html=1;align=center;verticalAlign=middle;whiteSpace=wrap;rounded=0;" parent="1" vertex="1">
          <mxGeometry x="700" y="331" width="270" height="50" as="geometry" />
        </mxCell>
        <mxCell id="OWpaZHNzUhLOPfv6ZXrJ-44" value="&lt;span style=&quot;font-size: 18px;&quot;&gt;Отчет о тестировании&lt;/span&gt;" style="text;html=1;align=center;verticalAlign=middle;whiteSpace=wrap;rounded=0;" parent="1" vertex="1">
          <mxGeometry x="700" y="391" width="250" height="50" as="geometry" />
        </mxCell>
        <mxCell id="OWpaZHNzUhLOPfv6ZXrJ-45" value="&lt;span style=&quot;font-size: 18px;&quot;&gt;Адаптивный квест&lt;/span&gt;" style="text;html=1;align=center;verticalAlign=middle;whiteSpace=wrap;rounded=0;" parent="1" vertex="1">
          <mxGeometry x="745" y="455" width="180" height="50" as="geometry" />
        </mxCell>
        <mxCell id="OWpaZHNzUhLOPfv6ZXrJ-46" value="&lt;span style=&quot;font-size: 18px;&quot;&gt;Диалоговое дерево&lt;/span&gt;" style="text;html=1;align=center;verticalAlign=middle;whiteSpace=wrap;rounded=0;" parent="1" vertex="1">
          <mxGeometry x="705" y="519" width="260" height="50" as="geometry" />
        </mxCell>
        <mxCell id="OWpaZHNzUhLOPfv6ZXrJ-47" value="&lt;span style=&quot;font-size: 18px;&quot;&gt;Иконки, спрайты, модели&lt;/span&gt;" style="text;html=1;align=center;verticalAlign=middle;whiteSpace=wrap;rounded=0;" parent="1" vertex="1">
          <mxGeometry x="700" y="570" width="290" height="50" as="geometry" />
        </mxCell>
        <mxCell id="OWpaZHNzUhLOPfv6ZXrJ-50" value="&lt;div style=&quot;text-align: left;&quot;&gt;&lt;span style=&quot;font-size: 18px;&quot;&gt;MapMagic2&lt;/span&gt;&lt;/div&gt;" style="text;html=1;align=center;verticalAlign=middle;whiteSpace=wrap;rounded=0;rotation=-90;" parent="1" vertex="1">
          <mxGeometry x="-11" y="700" width="80" height="30" as="geometry" />
        </mxCell>
        <mxCell id="OWpaZHNzUhLOPfv6ZXrJ-52" value="&lt;div style=&quot;text-align: left;&quot;&gt;&lt;span style=&quot;font-size: 18px;&quot;&gt;ComfyUI&lt;/span&gt;&lt;/div&gt;" style="text;html=1;align=center;verticalAlign=middle;whiteSpace=wrap;rounded=0;rotation=-90;" parent="1" vertex="1">
          <mxGeometry x="40" y="696" width="152" height="30" as="geometry" />
        </mxCell>
        <mxCell id="OWpaZHNzUhLOPfv6ZXrJ-54" value="&lt;div style=&quot;text-align: left;&quot;&gt;&lt;span style=&quot;font-size: 18px;&quot;&gt;INK&lt;/span&gt;&lt;/div&gt;" style="text;html=1;align=center;verticalAlign=middle;whiteSpace=wrap;rounded=0;rotation=-90;" parent="1" vertex="1">
          <mxGeometry x="71" y="726" width="282" height="30" as="geometry" />
        </mxCell>
        <mxCell id="OWpaZHNzUhLOPfv6ZXrJ-55" value="&lt;div style=&quot;text-align: left;&quot;&gt;&lt;span style=&quot;font-size: 18px;&quot;&gt;Разработчик&lt;/span&gt;&lt;/div&gt;" style="text;html=1;align=center;verticalAlign=middle;whiteSpace=wrap;rounded=0;rotation=-90;" parent="1" vertex="1">
          <mxGeometry x="232" y="700" width="150" height="30" as="geometry" />
        </mxCell>
        <mxCell id="OWpaZHNzUhLOPfv6ZXrJ-57" value="&lt;div style=&quot;text-align: left;&quot;&gt;&lt;span style=&quot;font-size: 18px;&quot;&gt;LLMUnity&lt;/span&gt;&lt;/div&gt;" style="text;html=1;align=center;verticalAlign=middle;whiteSpace=wrap;rounded=0;rotation=-90;" parent="1" vertex="1">
          <mxGeometry x="353" y="696" width="150" height="30" as="geometry" />
        </mxCell>
        <mxCell id="Kj6MfNfvCyC8jcDm3aih-2" value="" style="endArrow=classic;html=1;rounded=0;" parent="1" edge="1">
          <mxGeometry width="50" height="50" relative="1" as="geometry">
            <mxPoint x="67" y="880" as="sourcePoint" />
            <mxPoint x="68" y="622" as="targetPoint" />
          </mxGeometry>
        </mxCell>
        <mxCell id="Kj6MfNfvCyC8jcDm3aih-5" value="" style="endArrow=classic;html=1;rounded=0;entryX=0.192;entryY=-0.001;entryDx=0;entryDy=0;entryPerimeter=0;" parent="1" edge="1">
          <mxGeometry width="50" height="50" relative="1" as="geometry">
            <mxPoint x="370" y="-70" as="sourcePoint" />
            <mxPoint x="370" y="290" as="targetPoint" />
          </mxGeometry>
        </mxCell>
        <mxCell id="Kj6MfNfvCyC8jcDm3aih-10" value="" style="endArrow=classic;html=1;rounded=0;" parent="1" edge="1">
          <mxGeometry width="50" height="50" relative="1" as="geometry">
            <mxPoint x="157" y="878" as="sourcePoint" />
            <mxPoint x="158" y="620" as="targetPoint" />
          </mxGeometry>
        </mxCell>
        <mxCell id="Kj6MfNfvCyC8jcDm3aih-11" value="" style="endArrow=classic;html=1;rounded=0;" parent="1" edge="1">
          <mxGeometry width="50" height="50" relative="1" as="geometry">
            <mxPoint x="260" y="878" as="sourcePoint" />
            <mxPoint x="261" y="620" as="targetPoint" />
          </mxGeometry>
        </mxCell>
        <mxCell id="Kj6MfNfvCyC8jcDm3aih-12" value="" style="endArrow=classic;html=1;rounded=0;" parent="1" edge="1">
          <mxGeometry width="50" height="50" relative="1" as="geometry">
            <mxPoint x="360" y="878" as="sourcePoint" />
            <mxPoint x="361" y="620" as="targetPoint" />
          </mxGeometry>
        </mxCell>
        <mxCell id="Kj6MfNfvCyC8jcDm3aih-13" value="" style="endArrow=classic;html=1;rounded=0;" parent="1" edge="1">
          <mxGeometry width="50" height="50" relative="1" as="geometry">
            <mxPoint x="482" y="878" as="sourcePoint" />
            <mxPoint x="483" y="620" as="targetPoint" />
          </mxGeometry>
        </mxCell>
        <mxCell id="Kj6MfNfvCyC8jcDm3aih-16" value="" style="endArrow=classic;html=1;rounded=0;" parent="1" edge="1">
          <mxGeometry width="50" height="50" relative="1" as="geometry">
            <mxPoint x="-720" y="395" as="sourcePoint" />
            <mxPoint x="-117.5" y="395" as="targetPoint" />
          </mxGeometry>
        </mxCell>
        <mxCell id="Kj6MfNfvCyC8jcDm3aih-17" value="&lt;div style=&quot;color: black; background-color: transparent;&quot;&gt;&lt;span style=&quot;font-size: 18px;&quot;&gt;Параметры персонажа NPC&lt;/span&gt;&lt;/div&gt;" style="text;whiteSpace=wrap;html=1;align=center;" parent="1" vertex="1">
          <mxGeometry x="-534.5" y="351" width="470" height="40" as="geometry" />
        </mxCell>
        <mxCell id="Kj6MfNfvCyC8jcDm3aih-19" value="" style="endArrow=classic;html=1;rounded=0;" parent="1" edge="1">
          <mxGeometry width="50" height="50" relative="1" as="geometry">
            <mxPoint x="-722.5" y="439.33" as="sourcePoint" />
            <mxPoint x="-120" y="439.33" as="targetPoint" />
          </mxGeometry>
        </mxCell>
        <mxCell id="Kj6MfNfvCyC8jcDm3aih-20" value="" style="endArrow=classic;html=1;rounded=0;" parent="1" edge="1">
          <mxGeometry width="50" height="50" relative="1" as="geometry">
            <mxPoint x="-722.5" y="483" as="sourcePoint" />
            <mxPoint x="-120" y="483" as="targetPoint" />
          </mxGeometry>
        </mxCell>
        <mxCell id="Kj6MfNfvCyC8jcDm3aih-21" value="" style="endArrow=classic;html=1;rounded=0;" parent="1" edge="1">
          <mxGeometry width="50" height="50" relative="1" as="geometry">
            <mxPoint x="-722.5" y="519" as="sourcePoint" />
            <mxPoint x="-120" y="519" as="targetPoint" />
          </mxGeometry>
        </mxCell>
        <mxCell id="Kj6MfNfvCyC8jcDm3aih-22" value="" style="endArrow=classic;html=1;rounded=0;" parent="1" edge="1">
          <mxGeometry width="50" height="50" relative="1" as="geometry">
            <mxPoint x="-722.5" y="561" as="sourcePoint" />
            <mxPoint x="-120" y="561" as="targetPoint" />
          </mxGeometry>
        </mxCell>
        <mxCell id="Kj6MfNfvCyC8jcDm3aih-23" value="" style="endArrow=classic;html=1;rounded=0;" parent="1" edge="1">
          <mxGeometry width="50" height="50" relative="1" as="geometry">
            <mxPoint x="-722.5" y="611" as="sourcePoint" />
            <mxPoint x="-120" y="611" as="targetPoint" />
          </mxGeometry>
        </mxCell>
        <mxCell id="Kj6MfNfvCyC8jcDm3aih-24" value="" style="endArrow=classic;html=1;rounded=0;entryX=0.192;entryY=-0.001;entryDx=0;entryDy=0;entryPerimeter=0;" parent="1" edge="1">
          <mxGeometry width="50" height="50" relative="1" as="geometry">
            <mxPoint x="30.319999999999936" y="-56.84" as="sourcePoint" />
            <mxPoint x="30" y="292.8299999999999" as="targetPoint" />
          </mxGeometry>
        </mxCell>
        <mxCell id="Kj6MfNfvCyC8jcDm3aih-25" value="" style="endArrow=classic;html=1;rounded=0;entryX=0.192;entryY=-0.001;entryDx=0;entryDy=0;entryPerimeter=0;" parent="1" edge="1">
          <mxGeometry width="50" height="50" relative="1" as="geometry">
            <mxPoint x="200.31999999999994" y="-57.84" as="sourcePoint" />
            <mxPoint x="200" y="291.8299999999999" as="targetPoint" />
          </mxGeometry>
        </mxCell>
        <mxCell id="Kj6MfNfvCyC8jcDm3aih-26" value="" style="endArrow=classic;html=1;rounded=0;entryX=0.192;entryY=-0.001;entryDx=0;entryDy=0;entryPerimeter=0;" parent="1" edge="1">
          <mxGeometry width="50" height="50" relative="1" as="geometry">
            <mxPoint x="274.54999999999995" y="-59.66999999999999" as="sourcePoint" />
            <mxPoint x="274.23" y="290" as="targetPoint" />
          </mxGeometry>
        </mxCell>
        <mxCell id="Kj6MfNfvCyC8jcDm3aih-27" value="" style="endArrow=classic;html=1;rounded=0;entryX=0.192;entryY=-0.001;entryDx=0;entryDy=0;entryPerimeter=0;" parent="1" edge="1">
          <mxGeometry width="50" height="50" relative="1" as="geometry">
            <mxPoint x="478.46" y="-70" as="sourcePoint" />
            <mxPoint x="478.46" y="290" as="targetPoint" />
          </mxGeometry>
        </mxCell>
      </root>
    </mxGraphModel>
  </diagram>
</mxfile>
